<?xml version="1.0" standalone="no"?>
<!DOCTYPE svg PUBLIC "-//W3C//DTD SVG 20010904//EN"
 "http://www.w3.org/TR/2001/REC-SVG-20010904/DTD/svg10.dtd">
<svg version="1.0" xmlns="http://www.w3.org/2000/svg"
 width="820.000000pt" height="1720.000000pt" viewBox="0 0 820.000000 1720.000000"
 preserveAspectRatio="xMidYMid meet">

<g transform="translate(0.000000,1720.000000) scale(0.100000,-0.100000)"
fill="#000000" stroke="none">
<path d="M3780 16790 c-300 -26 -386 -40 -635 -100 -153 -37 -393 -80 -444
-80 -37 0 -374 -78 -501 -117 -139 -42 -284 -91 -375 -128 -69 -28 -260 -122
-338 -166 -248 -141 -500 -352 -657 -549 -166 -210 -320 -476 -411 -710 -16
-41 -33 -82 -38 -90 -5 -9 -12 -31 -16 -50 -4 -19 -20 -61 -36 -92 -31 -62
-45 -98 -89 -228 -35 -105 -47 -172 -61 -325 -6 -66 -15 -128 -21 -138 -6 -12
-9 -1069 -8 -2940 1 -2773 -6 -4203 -30 -5762 -6 -379 -12 -1079 -13 -1555 -2
-857 -2 -866 21 -1010 57 -359 182 -652 417 -975 85 -117 380 -413 495 -496
198 -144 321 -223 465 -300 217 -114 301 -151 607 -268 59 -23 113 -41 121
-41 7 0 47 -12 88 -26 41 -14 101 -32 134 -39 33 -8 125 -29 205 -49 296 -71
511 -101 965 -136 163 -12 540 -12 705 0 289 22 482 42 585 61 60 11 151 27
202 35 50 8 145 28 210 45 65 18 138 36 163 40 105 21 434 131 640 214 140 57
514 243 560 279 8 7 56 36 105 66 50 29 101 63 115 75 14 12 66 50 115 85 50
36 122 90 160 121 102 83 391 381 465 479 35 47 69 90 76 95 28 23 70 107 115
229 55 147 138 418 150 486 4 25 16 90 27 145 23 113 21 -9 42 4681 l11 2391
-41 94 c-77 177 -203 381 -327 529 -80 95 -206 219 -273 269 -19 14 -42 33
-50 42 -8 9 -53 39 -100 68 -47 28 -92 56 -100 61 -47 31 -250 124 -343 158
-136 50 -441 125 -617 152 -360 54 -386 55 -1045 55 -658 0 -705 -3 -960 -51
-146 -28 -221 -47 -280 -74 -142 -64 -161 -76 -229 -144 -39 -39 -86 -88 -104
-108 -18 -21 -37 -38 -42 -38 -7 0 -10 482 -10 1359 l0 1359 81 76 c91 84 194
141 319 175 102 29 287 29 380 2 163 -48 236 -88 333 -180 46 -44 47 -47 47
-106 0 -34 -5 -66 -11 -72 -8 -8 -8 -13 0 -17 8 -5 11 -226 11 -752 l0 -744
1695 0 1695 0 0 978 0 977 -24 158 c-25 160 -64 310 -116 447 -16 41 -43 111
-59 155 -68 184 -188 435 -265 555 -106 165 -146 220 -233 325 -159 190 -416
422 -569 513 -27 16 -74 45 -106 65 -88 57 -349 181 -496 236 -147 56 -382
129 -452 141 -25 4 -92 19 -150 33 -114 27 -171 36 -390 67 -221 31 -423 50
-545 50 -60 0 -171 7 -245 15 -165 18 -541 27 -670 15z m2296 -8464 c169 -45
272 -164 328 -382 13 -49 16 -147 18 -549 l3 -489 -100 -23 c-55 -12 -158 -32
-230 -43 -71 -12 -179 -30 -240 -40 -60 -10 -159 -26 -220 -35 -60 -9 -191
-30 -290 -47 -99 -16 -207 -33 -240 -38 -189 -28 -203 -32 -223 -53 -30 -33
-51 -80 -74 -165 -20 -72 -22 -109 -28 -597 -7 -630 -4 -611 -127 -666 -41
-19 -92 -32 -155 -39 -148 -18 -267 -40 -330 -61 -31 -10 -63 -19 -70 -19 -21
0 -129 -76 -179 -126 -26 -25 -62 -75 -80 -112 l-34 -66 4 -1241 4 -1242 -84
-61 c-88 -65 -178 -102 -249 -102 -20 0 -64 -3 -97 -6 -54 -6 -61 -9 -70 -35
l-11 -29 -231 0 c-139 0 -232 4 -236 10 -3 5 -1 18 5 29 13 26 6 29 -79 37
l-71 7 0 69 0 69 -45 -7 c-41 -6 -45 -4 -45 14 0 19 37 115 85 217 l23 50 9
2510 c8 2330 8 2511 -8 2525 -9 8 -29 24 -44 35 -27 20 -27 20 -20 107 l7 86
44 11 44 11 0 71 c0 43 6 81 15 99 37 72 180 128 397 157 164 22 576 25 621 5
29 -12 48 -47 92 -169 30 -82 44 -98 114 -123 84 -32 230 -37 398 -15 167 23
350 82 758 245 169 68 337 129 400 146 28 8 61 18 75 24 14 6 72 21 130 34
121 28 258 33 336 12z"/>
<path d="M4320 6501 c0 -12 20 -32 54 -55 89 -59 164 -134 208 -208 22 -38 39
-71 36 -73 -3 -3 -40 6 -83 20 -106 35 -218 49 -350 43 -99 -5 -119 -9 -177
-37 -40 -19 -87 -52 -117 -83 l-51 -52 0 -318 c0 -355 4 -380 65 -418 31 -19
49 -20 364 -20 371 0 361 -2 407 72 l24 38 0 464 c0 358 -3 468 -12 478 -7 7
-33 36 -58 63 -89 100 -100 105 -211 105 -91 0 -99 -2 -99 -19z"/>
</g>
</svg>
